# xmcd CD database file
#
# Track frame offsets:
#	150
#	4110
#	22863
#	42594
#	60479
#	76439
#	92356
#	110210
#	127110
#	144510
#
# Disc length: 2120 seconds
#
# Revision: 0
# Processed by: cddbd v1.5.1PL0 Copyright (c) Steve Scherf et al.
# Submitted via: CDex 1.51
#
DISCID=7e08460a
DTITLE=SOUND OF HEAVEN - - ALICE IN HELL -
DYEAR=2005
DGENRE=Heavy Metal
TTITLE0=ALICE IN HELL
TTITLE1=Running to the Straight
TTITLE2=going on
TTITLE3=Dreaming Continue
TTITLE4=Red Tint
TTITLE5=Scal Serpent
TTITLE6=Rough edge
TTITLE7=思案、実行。思案。
TTITLE8=A Night Come's!
TTITLE9=Over Beat - 明日へのエスカレーション -
EXTD=YEAR: 2005
EXTT0=
EXTT1=
EXTT2=
EXTT3=
EXTT4=
EXTT5=
EXTT6=
EXTT7=
EXTT8=
EXTT9=
PLAYORDER=
